<svg xmlns="http://www.w3.org/2000/svg" width="8" height="16" viewBox="0 0 8 16">
    <path fill="#FFF" d="M7.674 14.22l-.25.91c-.748.264-1.346.464-1.79.602-.446.139-.964.208-1.554.208-.906 0-1.61-.199-2.113-.592-.503-.395-.754-.896-.754-1.503 0-.236.018-.477.056-.724.038-.247.1-.524.182-.835l.936-2.955c.083-.283.153-.552.21-.805.058-.252.085-.484.085-.693 0-.377-.087-.641-.262-.79-.174-.148-.506-.223-1-.223-.242 0-.49.035-.743.102-.255.067-.472.132-.655.192l.25-.911c.613-.223 1.199-.414 1.759-.572.56-.159 1.09-.238 1.59-.238.9 0 1.594.194 2.081.582.488.389.731.893.731 1.513 0 .129-.016.355-.05.679-.034.324-.096.62-.187.89l-.932 2.944c-.076.237-.144.507-.204.811-.062.302-.091.533-.091.688 0 .391.097.658.293.8.197.142.537.212 1.019.212.226 0 .484-.036.77-.106.286-.07.494-.132.623-.187zM7.91 1.86c0 .513-.216.951-.651 1.311-.434.362-.957.543-1.569.543-.614 0-1.138-.181-1.577-.543-.438-.36-.657-.798-.657-1.31s.22-.951.657-1.316C4.552.182 5.077 0 5.69 0c.612 0 1.135.182 1.569.546.435.365.651.804.651 1.315z"/>
</svg>
